# xmcd
#
# Track frame offsets: 
#        150
#        12773
#        28813
#        41090
#        51520
#        66138
#        81723
#        92855
#        108783
#        123868
#        138648
#        150993
#
# Disc length: 2149 seconds
#
# Revision: 2
# Processed by: cddbd v1.5.2PL0 Copyright (c) Steve Scherf et al.
# Submitted via: ExactAudioCopyFreeDBPlugin 1.0
#
DISCID=a008630c
DTITLE=Aretha Franklin - The Best of Aretha Franklin
DYEAR=1984
DGENRE=Soul
TTITLE0=Chain Of Fools
TTITLE1=I Say A Little Prayer
TTITLE2=(You Make Me Feel Like) A Natural Woman
TTITLE3=Think
TTITLE4=Rock Steady
TTITLE5=Until You Come Back To Me (That's What I'm Gonna Do)
TTITLE6=Respect
TTITLE7=Spanish Harlem
TTITLE8=Dr. Feelgood
TTITLE9=Do Right Woman - Do Right Man
TTITLE10=I Never Loved a Man (The Way I Love You)
TTITLE11=Save Me
EXTD=
EXTT0=
EXTT1=
EXTT2=
EXTT3=
EXTT4=
EXTT5=
EXTT6=
EXTT7=
EXTT8=
EXTT9=
EXTT10=
EXTT11=
PLAYORDER=
